<svg viewBox="0 0 16 16" xmlns="http://www.w3.org/2000/svg"><g fill="#8da5f3"><path d="m3.75 9a1 1 0 1 0 1 1 1 1 0 0 0 -1-1z"/><path d="m8.34 3.61c0-2.09-1.78-3.61-4.24-3.61-2.23 0-3.82 1.23-4.1 3.14v.27h2.14v-.2a1.91 1.91 0 0 1 2-1.44 1.88 1.88 0 0 1 2.09 1.84c0 1-1.46 2.16-2.8 2.16h-1.67l1.24 2.57h1.7l.06-1.21v-.13h.24c2.05-.33 3.34-1.61 3.34-3.39z"/><path d="m16 12.5a21 21 0 0 1 -6-3.5l.9 2.62h-10.9v1.76h10.92l-.92 2.62a21 21 0 0 1 6-3.5z"/><path d="m12.62 5 3.38 3v-6z"/><path d="m11 2h1.62v6h-1.62z"/></g></svg>