<svg enable-background="new 0 0 16 16" viewBox="0 0 16 16" xmlns="http://www.w3.org/2000/svg"><g fill="#8da5f3"><path d="m16 12c-2.27-.89-5.09-2.4-6.84-4l1.03 3h-10.19v2h10.19l-1.03 3c1.75-1.6 4.57-3.11 6.84-4z"/><path d="m4 1.99c0-1.1-.9-1.99-1.99-1.99-1.11 0-2.01.89-2.01 1.98 0 1.13.89 2.02 2.01 2.02 1.1 0 1.99-.9 1.99-2.01zm-1.99 1.51c-.85 0-1.51-.67-1.51-1.51 0-.82.67-1.49 1.51-1.49.82 0 1.49.67 1.49 1.49 0 .83-.67 1.51-1.49 1.51z"/><path d="m8.24 6.23c0-1.1-.89-1.99-1.99-1.99-1.11 0-2.01.89-2.01 1.98 0 1.13.89 2.01 2.01 2.01 1.1.01 1.99-.89 1.99-2zm-1.99 1.51c-.85 0-1.51-.66-1.51-1.51 0-.82.67-1.49 1.51-1.49.82 0 1.49.67 1.49 1.49 0 .84-.67 1.51-1.49 1.51z"/><path d="m-.88 3.62h10v1h-10z" transform="matrix(.7071 -.7071 .7071 .7071 -1.7066 4.1199)"/></g></svg>