<svg enable-background="new 0 0 16 16" viewBox="0 0 16 16" xml:space="preserve" xmlns="http://www.w3.org/2000/svg"><path d="m514-29.36c3.14 0 5.7 2.56 5.7 5.7s-2.56 5.7-5.7 5.7-5.7-2.56-5.7-5.7 2.56-5.7 5.7-5.7m0-1.3c-3.87 0-7 3.13-7 7s3.13 7 7 7 7-3.13 7-7-3.13-7-7-7z" fill="#c38ef1"/><path d="m-222.34-19.66c-.82 0-1.49.67-1.49 1.49 0 .83.67 1.51 1.49 1.51.85 0 1.51-.66 1.51-1.51 0-.82-.68-1.49-1.51-1.49z" fill="#ffca5f"/><path d="m-217-26.33c0-2.51-2.14-4.33-5.08-4.33-2.67 0-4.58 1.48-4.87 3.77l-.04.32h2.56l.05-.24c.2-1.03 1.16-1.72 2.39-1.72 1.45 0 2.47.91 2.47 2.21 0 1.24-1.75 2.59-3.35 2.59h-2.01l1.53 3.08h2.03l.07-1.45.01-.2.2-.03c2.49-.33 4.04-1.86 4.04-4z" fill="#ffca5f"/><g fill="#8da5f3"><path d="m-318.25-22.66c-.56 0-1.02.46-1.02 1.02 0 .57.46 1.03 1.02 1.03.58 0 1.03-.45 1.03-1.03 0-.56-.47-1.02-1.03-1.02z"/><path d="m-313.66-28.05c0-2.09-1.78-3.61-4.24-3.61-2.23 0-3.82 1.23-4.07 3.14l-.03.27h2.14l.04-.2c.17-.86.97-1.44 1.99-1.44 1.21 0 2.06.76 2.06 1.84 0 1.03-1.46 2.16-2.8 2.16h-1.68l1.28 2.57h1.69l.06-1.21.01-.16.16-.02c2.1-.28 3.39-1.56 3.39-3.34z"/><path d="m-546.81-31.66c-2.53 0-4.34 1.41-4.62 3.6l-.07.54h2.74l.08-.39c.16-.83.94-1.39 1.95-1.39 1.19 0 2.02.73 2.02 1.79 0 1-1.5 2.13-2.81 2.13h-2.16l1.6 3.22h2.17l.08-1.52c2.35-.31 3.85-1.78 3.85-3.84-.02-2.4-2.04-4.14-4.83-4.14z"/><path d="m-582-23.66c-2.27-.89-5.09-2.4-6.84-4l1.03 3h-10.19v2h10.19l-1.03 3c1.75-1.6 4.57-3.11 6.84-4z"/><path d="m-536-19.66c-2.27-.89-5.09-2.4-6.84-4l1.03 3h-10.19v2h10.19l-1.03 3c1.75-1.6 4.57-3.11 6.84-4z"/><path d="m-260-19.66c-2.27-.89-5.09-2.4-6.84-4l1.03 3h-10.19v2h10.19l-1.03 3c1.75-1.6 4.57-3.11 6.84-4z"/><path d="m-306-19.16c-1.99-.77-4.45-2.1-5.98-3.5l.9 2.62h-10.92v1.75h10.92l-.9 2.62c1.53-1.39 3.99-2.71 5.98-3.49z"/><path d="m-352-19.66c-2.27-.89-5.09-2.4-6.84-4l1.03 3h-10.19v2h10.19l-1.03 3c1.75-1.6 4.57-3.11 6.84-4z"/><path d="m-365.99-31.66c-1.11 0-2.01.89-2.01 1.98 0 1.13.89 2.01 2.01 2.01 1.1 0 1.99-.9 1.98-2.01.01-1.09-.89-1.98-1.98-1.98zm-1.02 1.99c0-.55.45-1 1.01-1 .55 0 1 .45 1 1 0 .56-.45 1.01-1 1.01-.56.01-1.01-.44-1.01-1.01z"/><path d="m-361.75-27.42c-1.11 0-2.01.89-2.01 1.98 0 1.13.89 2.01 2.01 2.01 1.1 0 1.99-.9 1.98-2.01.01-1.08-.88-1.98-1.98-1.98zm-1.02 1.99c0-.55.45-1 1.01-1 .55 0 1 .45 1 1 0 .56-.45 1.01-1 1.01-.56.01-1.01-.44-1.01-1.01z"/><path d="m-368.88-28.04h10v1h-10z" transform="matrix(.7071 -.7071 .7071 .7071 -87.1046 -265.3683)"/><path d="m-351.76-37.64c-2.27-.89-5.09-2.4-6.84-4l1.03 3h-10.19v2h10.19l-1.03 3c1.75-1.6 4.57-3.11 6.84-4z"/><path d="m-363.76-47.65c0-1.1-.89-1.99-1.99-1.99-1.11 0-2.01.89-2.01 1.98 0 1.13.89 2.01 2.01 2.01 1.1.01 1.99-.89 1.99-2zm-1.99 1.51c-.85 0-1.51-.66-1.51-1.51 0-.82.67-1.49 1.51-1.49.82 0 1.49.67 1.49 1.49 0 .83-.67 1.51-1.49 1.51z"/><path d="m-359.52-43.41c0-1.1-.89-1.99-1.99-1.99-1.11 0-2.01.89-2.01 1.98 0 1.13.89 2.01 2.01 2.01 1.1.01 1.99-.89 1.99-2zm-1.99 1.51c-.85 0-1.51-.66-1.51-1.51 0-.82.67-1.49 1.51-1.49.82 0 1.49.67 1.49 1.49 0 .84-.67 1.51-1.49 1.51z"/><path d="m-368.64-46.02h10v1h-10z" transform="matrix(.7071 -.7071 .7071 .7071 -74.3212 -270.4648)"/></g><g fill="#c38ef1"><path d="m322-19.66h4v4h-4z"/><path d="m328-19.66h4v4h-4z"/><path d="m327-31.66h6v4h-6z"/><path d="m373-31.66h6v4h-6z"/><path d="m416-27.66h12v8h-12z"/><path d="m368-19.66h6v4h-6z"/><path d="m378-19.66h6v4h-6z"/><path d="m329.5-29.16h1v10h-1z"/><path d="m334-19.66h4v4h-4z"/><path d="m336.5-17.66h-1v-5.5h-11v3.86h-1v-4.86h13z"/><path d="m367-24.16h13v1h-13z" transform="matrix(.3845 -.9231 .9231 .3845 251.7389 330.2278)"/><path d="m378-30.16h1v13h-1z" transform="matrix(.9231 -.3846 .3846 .9231 38.2152 143.757)"/></g><path d="m280.5-30.66 2.47 10h2.31l2.22-10z" fill="#e0e0e0"/><path d="m283.99-19.66c-.82 0-1.49.67-1.49 1.49 0 .83.67 1.51 1.49 1.51.85 0 1.51-.66 1.51-1.51 0-.82-.68-1.49-1.51-1.49z" fill="#e0e0e0"/><path d="m60.98-23.67-6.98-6.99-6.3 6.3-.69.69-.01.02 6.99 6.99.01-.01.01.01 6.99-6.99zm-12.59 0h11.21l-5.6 5.61z" fill="#c38ef1"/><path d="m106.21-28.45-1.42-1.42-4.79 4.8-4.79-4.8-1.42 1.42 4.8 4.79-4.8 4.79 1.42 1.42 4.79-4.8 4.79 4.8 1.42-1.42-4.8-4.79z" fill="#fc7f7f"/><path d="m-306-26.32c0 2.59-1.99 3.51-3.16 2.73l-1.11-.82c-.67-.48-1.23.33-1.23 1.09h-1.5c0-2.57 2.01-3.44 3.16-2.67l1.11.82c.69.48 1.23-.38 1.23-1.15z" fill="#8da5f3"/><path d="m-266-28.33c0 3.45-2.84 4.68-4.51 3.64l-1.59-1.09c-.95-.64-1.75.44-1.75 1.45h-2.15c0-3.42 2.87-4.59 4.51-3.55l1.59 1.09c.98.65 1.75-.5 1.75-1.54z" fill="#8da5f3"/><path d="m190.2-16.89c-.33 0-.64-.16-.83-.43l-4.21-6.14 1.65-1.13 3.36 4.9 6.98-10.74 1.68 1.09-7.79 12c-.18.28-.49.45-.83.46 0-.01-.01-.01-.01-.01z" fill="#8eef97"/><g fill="#8da5f3"><path d="m944.01-95.39c-1.7-.6-3.82-1.62-5.13-2.71l.76 1.99h-3.22l-3.94 7.59h-4.47v1.42h5.4l3.94-7.59h2.29l-.76 2c1.31-1.08 3.42-2.1 5.13-2.7z"/><path d="m933.66-92.4.84-1.61-1.09-2.09h-5.4v1.42h4.47z"/><path d="m944.01-87.8c-1.7-.6-3.82-1.62-5.13-2.71l.76 1.99h-2.29l-1.18-2.28-.84 1.61 1.08 2.09h3.22l-.76 2c1.32-1.08 3.43-2.1 5.14-2.7z"/></g><g fill="#c38ef1"><path d="m-130.18-26.76c0-1.6-1.3-2.9-2.9-2.9-1.61 0-2.93 1.3-2.92 2.89 0 1.64 1.29 2.93 2.93 2.93 1.6 0 2.89-1.31 2.89-2.92zm-2.89 2.19c-1.23 0-2.2-.97-2.2-2.2 0-1.2.98-2.17 2.19-2.17 1.2 0 2.17.98 2.17 2.17.01 1.22-.97 2.21-2.16 2.2z"/><path d="m-124-20.58c0-1.6-1.3-2.9-2.9-2.9-1.61 0-2.93 1.3-2.92 2.89 0 1.64 1.29 2.93 2.93 2.93 1.6 0 2.89-1.31 2.89-2.92zm-2.89 2.19c-1.23 0-2.2-.97-2.2-2.2 0-1.2.98-2.17 2.19-2.17 1.2 0 2.17.98 2.17 2.17 0 1.22-.97 2.2-2.16 2.2z"/><path d="m-137.28-24.39h14.56v1.46h-14.56z" transform="matrix(.7071 -.7071 .7071 .7071 -21.3465 -98.8535)"/><path d="m-89.6-22.66c.42-1.33 1.14-2.98 1.9-4l-1.35.57v-2.04c0-.45.36-.83.79-.83h8.49c.43 0 .79.38.79.83v2.47h1.14v-2.47c0-1.12-.87-2.03-1.93-2.03h-8.49c-1.06 0-1.93.91-1.93 2.03v2.03l-1.31-.56c.76 1.02 1.48 2.67 1.9 4z"/><path d="m-78.4-24.66c-.42 1.33-1.14 2.98-1.9 4l1.32-.56v2.03c0 .45-.36.83-.79.83h-8.49c-.43 0-.79-.38-.79-.83v-2.47h-1.14v2.47c0 1.12.87 2.03 1.93 2.03h8.49c1.06 0 1.93-.91 1.93-2.03v-2.04l1.34.57c-.76-1.02-1.48-2.67-1.9-4z"/></g><path d="m140.4-22.66c.42-1.33 1.14-2.98 1.9-4l-1.35.57v-2.04c0-.45.36-.83.79-.83h8.49c.43 0 .79.38.79.83v2.47h1.14v-2.47c0-1.12-.87-2.03-1.93-2.03h-8.49c-1.06 0-1.93.91-1.93 2.03v2.03l-1.31-.56c.76 1.02 1.48 2.67 1.9 4z" fill="#fc7f7f"/><path d="m151.6-24.66c-.42 1.33-1.14 2.98-1.9 4l1.32-.56v2.03c0 .45-.36.83-.79.83h-8.49c-.43 0-.79-.38-.79-.83v-2.47h-1.14v2.47c0 1.12.87 2.03 1.93 2.03h8.49c1.06 0 1.93-.91 1.93-2.03v-2.04l1.34.57c-.76-1.02-1.48-2.67-1.9-4z" fill="#fc7f7f"/><path d="m232.4-22.66c.42-1.33 1.14-2.98 1.9-4l-1.35.57v-2.04c0-.45.36-.83.79-.83h8.49c.43 0 .79.38.79.83v2.47h1.14v-2.47c0-1.12-.87-2.03-1.93-2.03h-8.49c-1.06 0-1.93.91-1.93 2.03v2.03l-1.31-.56c.76 1.02 1.48 2.67 1.9 4z" fill="#8eef97"/><path d="m243.6-24.66c-.42 1.33-1.14 2.98-1.9 4l1.32-.56v2.03c0 .45-.36.83-.79.83h-8.49c-.43 0-.79-.38-.79-.83v-2.47h-1.14v2.47c0 1.12.87 2.03 1.93 2.03h8.49c1.06 0 1.93-.91 1.93-2.03v-2.04l1.34.57c-.76-1.02-1.48-2.67-1.9-4z" fill="#8eef97"/><path d="m472.63-26.47.74-.74-1.08-1.08-.77.77c-.56-.41-1.2-.72-1.89-.92v-2.23h-3.25v2.23c-2.52.71-4.38 3.02-4.38 5.77 0 3.31 2.69 6 6 6s6-2.69 6-6c0-1.44-.51-2.76-1.37-3.8zm-4.63 8.51c-2.59 0-4.7-2.11-4.7-4.7 0-2.37 1.77-4.32 4.05-4.63v4.64h1.3v-4.64c2.28.32 4.05 2.27 4.05 4.63 0 2.59-2.11 4.7-4.7 4.7z" fill="#e0e0e0"/><g fill="#8da5f3"><path d="m-502.25-22.66c-.56 0-1.02.46-1.02 1.02 0 .57.46 1.03 1.02 1.03.58 0 1.03-.45 1.03-1.03 0-.56-.47-1.02-1.03-1.02z"/><path d="m-497.66-28.05c0-2.09-1.78-3.61-4.24-3.61-2.23 0-3.82 1.23-4.07 3.14l-.03.27h2.14l.04-.2c.17-.86.97-1.44 1.99-1.44 1.21 0 2.06.76 2.06 1.84 0 1.03-1.46 2.16-2.8 2.16h-1.68l1.28 2.57h1.69l.06-1.21.01-.16.16-.02c2.1-.28 3.39-1.56 3.39-3.34z"/><path d="m-490-19.16c-1.99-.77-4.45-2.1-5.98-3.5l.9 2.62h-10.92v1.75h10.92l-.9 2.62c1.53-1.39 3.99-2.71 5.98-3.49z"/><path d="m1063.92-95.59c-.42 1.33-1.14 2.98-1.9 4l1.32-.56h1.14l1.34.57c-.76-1.04-1.48-2.68-1.9-4.01z"/><path d="m1068.35-95.59c-.42 1.33-1.14 2.98-1.9 4l1.32-.56h1.14l1.34.57c-.76-1.04-1.47-2.68-1.9-4.01z"/><path d="m1076.49-94.96-.27.44-.09.15.13.13c.39.39.61.9.61 1.46 0 1.12-.88 2.02-1.97 2.02s-1.97-.91-1.97-2.02c0-.76.42-1.42 1.04-1.77v-1.05c-1.17.4-1.98 1.52-1.98 2.82 0 1.64 1.3 2.98 2.91 2.98s2.91-1.34 2.91-2.98c0-.68-.23-1.33-.63-1.85-.1-.13-.24-.01-.37-.12"/><path d="m1073.32-95.8h.88v2.16h-.88z"/><path d="m1075.25-95.8.68 2.81 2.05-2.01z"/><path d="m-493.38-26.66 3.38 3v-6z"/><path d="m-495-29.66h1.62v6h-1.62z"/><path d="m566-23.66c-1.7-.66-3.82-1.8-5.13-3l.77 2.25h-7.64v1.5h7.65l-.77 2.25c1.3-1.2 3.42-2.34 5.12-3z"/><path d="m603.89-29.66c-1.9 0-3.26 1.06-3.47 2.7l-.05.4h2.05l.06-.29c.12-.62.71-1.04 1.46-1.04.89 0 1.51.55 1.51 1.34 0 .75-1.12 1.6-2.11 1.6h-1.62l1.2 2.42h1.63l.06-1.14c1.77-.23 2.89-1.34 2.89-2.88 0-1.8-1.52-3.11-3.61-3.11z"/><path d="m612-20.66c-1.7-.66-3.82-1.8-5.13-3l.77 2.25h-7.64v1.5h7.65l-.77 2.25c1.3-1.2 3.42-2.34 5.12-3z"/><path d="m566.78-30.46v13.6h-13.6v-13.6zm1.2-1.2h-16v16h16z"/><path d="m612.8-30.46v13.6h-13.6v-13.6zm1.2-1.2h-16v16h16z"/><path d="m644.6-31.06h14.8v14.8h-14.8z"/><path d="m658.8-30.46v13.6h-13.6v-13.6zm1.2-1.2h-16v16h16z"/><path d="m690.62-31.06h14.8v14.8h-14.8z"/><path d="m704.82-30.46v13.6h-13.6v-13.6zm1.2-1.2h-16v16h16z"/></g><g fill="#fff"><path d="m695.92-29.66c-1.9 0-3.26 1.06-3.47 2.7l-.05.4h2.05l.06-.29c.12-.62.71-1.04 1.46-1.04.89 0 1.51.55 1.51 1.34 0 .75-1.12 1.6-2.11 1.6h-1.62l1.2 2.42h1.63l.06-1.14c1.77-.23 2.89-1.34 2.89-2.88-.01-1.8-1.52-3.11-3.61-3.11z"/><path d="m704.02-20.66c-1.7-.66-3.82-1.8-5.13-3l.77 2.25h-7.65v1.5h7.65l-.77 2.25c1.32-1.2 3.43-2.34 5.13-3z"/><path d="m658.02-23.66c-1.7-.66-3.82-1.8-5.13-3l.77 2.25h-7.65v1.5h7.65l-.77 2.25c1.32-1.2 3.43-2.34 5.13-3z"/></g><path d="m16-21.63v-4h-6v1.5h-6.5v-3.53h2.5v-4h-6v4h2.5v10.5h.17.83 6.5v1.5h6v-4h-6v1.5h-6.5v-4.97h6.5v1.5z" fill="#c38ef1"/><path d="m749.5-20.81c-.43 0-.81.18-1.08.47l-2.52-1.13c.04-.18.06-.36.06-.54 0-.68-.27-1.3-.71-1.75l2.11-3.11c.12.03.24.05.38.05.83 0 1.5-.67 1.5-1.5s-.67-1.5-1.5-1.5-1.5.67-1.5 1.5c0 .33.11.64.3.89l-2.11 3.11c-.3-.12-.62-.19-.96-.19-.35 0-.68.07-.98.2l-2.76-3.98c.18-.25.29-.55.29-.87 0-.83-.67-1.5-1.5-1.5s-1.5.67-1.5 1.5.67 1.5 1.5 1.5c.14 0 .27-.02.39-.06l2.76 3.98c-.43.45-.7 1.05-.7 1.72 0 .4.1.77.27 1.1l-1.92 1.49c-.23-.15-.51-.24-.81-.24-.83 0-1.5.67-1.5 1.5s.67 1.5 1.5 1.5 1.5-.67 1.5-1.5c0-.16-.03-.32-.08-.47l1.92-1.49c.44.37 1 .61 1.62.61.84 0 1.57-.41 2.03-1.05l2.53 1.13c0 .04-.01.08-.01.12 0 .83.67 1.5 1.5 1.5s1.5-.67 1.5-1.5-.69-1.49-1.52-1.49z" fill="#e0e0e0"/><g fill="#8da5f3"><circle cx="960.39" cy="-96.77" r="1.5"/><circle cx="951.16" cy="-97.61" r="1.5"/><circle cx="951.16" cy="-86.61" r="1.5"/><circle cx="956.12" cy="-90.46" r="2.5"/><circle cx="962.16" cy="-87.76" r="1.5"/></g><g fill="none" stroke="#8da5f3" stroke-miterlimit="10"><path d="m956.12-90.46 6.04 2.7"/><path d="m951.16-86.61 4.96-3.85"/><path d="m951.16-97.61 4.96 7.15"/><path d="m960.39-96.77-4.27 6.31"/></g><path d="m999.38-93.87h-.22c-.02-3.3-2.7-5.97-6-5.97s-5.98 2.67-6 5.97h-.22c-.43 0-.78.35-.78.78v6.47c0 .43.35.78.78.78h4.59 3.25 4.59c.43 0 .78-.35.78-.78v-6.47c.01-.43-.34-.78-.77-.78zm-6.22-4.67c2.58 0 4.68 2.09 4.7 4.67h-9.39c.01-2.57 2.11-4.67 4.69-4.67z" fill="#8da5f3"/><path d="m1005.74-89.77-.5-2.05c.26-.21.44-.52.44-.89 0-.64-.52-1.16-1.16-1.16s-1.16.52-1.16 1.16c0 .36.18.68.44.89l-.5 2.05c-.06.23.12.46.36.46h1.73c.23 0 .41-.23.35-.46z" fill="#fff"/><path d="m-31.78-24.69h-.22c-.02-3.3-2.7-5.97-6-5.97s-5.98 2.67-6 5.97h-.22c-.43 0-.78.35-.78.78v6.47c0 .43.35.78.78.78h4.59 3.25 4.59c.43 0 .78-.35.78-.78v-6.47c.01-.43-.34-.78-.77-.78zm-5.17 6.4h-2.1c-.29 0-.51-.25-.44-.5l.61-2.25c-.32-.23-.53-.58-.53-.97 0-.7.63-1.27 1.41-1.27s1.41.57 1.41 1.27c0 .4-.21.74-.53.97l.61 2.25c.07.25-.15.5-.44.5zm-5.75-6.4c.02-2.58 2.12-4.67 4.7-4.67s4.68 2.09 4.7 4.67z" fill="#c38ef1"/><g fill="#8da5f3"><path d="m-444-20.16c-1.99-.77-4.45-2.1-5.98-3.5l.9 2.62h-10.92v1.75h10.92l-.9 2.62c1.53-1.39 3.99-2.71 5.98-3.49z"/><path d="m-447.38-27.66 3.38 3v-6z"/><path d="m-449-30.66h1.62v6h-1.62z"/></g><path d="m886.47-30.16h-8.94c-1.12 0-2.03.91-2.03 2.03v.77 1.25 1.86 2.58 1.16 1.31c0 1.12.91 2.03 2.03 2.03h8.94c1.12 0 2.03-.91 2.03-2.03v-1.04-.99-1.91-2.53-1.43-1.04c0-1.11-.91-2.02-2.03-2.02zm.83 4.5v2.56 1.88.99 1.04c0 .45-.38.83-.83.83h-8.94c-.45 0-.83-.38-.83-.83v-1.31-1.16-2.5-1.93-1.27-.77c0-.45.38-.83.83-.83h8.94c.45 0 .83.38.83.83v1.04z" fill="#e0e0e0"/><path d="m884.65-24.31-4.8-2.85-.85 1.18 3.83 2.27-3.79 2.38.88 1.17 4.75-2.98c.21-.13.34-.35.34-.58v-.01c-.01-.23-.15-.45-.36-.58z" fill="#e0e0e0"/><path d="m1046.62-104.84h10.72v9.81h-10.72z" fill="none"/><text font-family="Campton-Book" font-size="12" transform="translate(1046.6193 -96.3158)">$</text><g fill="#e0e0e0"><path d="m784.91-17.09c-1.37-2.27-1.91-4.36-1.91-6.5s.54-4.23 1.91-6.5l1.09 1.06c-1.26 2.37-1.51 3.87-1.51 5.44s.25 3.08 1.51 5.44z"/><path d="m795.09-30.09c1.37 2.27 1.91 4.36 1.91 6.5s-.54 4.23-1.91 6.5l-1.09-1.06c1.26-2.37 1.51-3.87 1.51-5.44s-.25-3.08-1.51-5.44z"/><path d="m792.87-20.16h-1.84l-1.21-2.33-1.93 2.33h-1.89l2.96-3.53-1.84-3.47h1.89l1.18 2.23 1.86-2.23h1.95l-2.98 3.49z"/></g><path d="m1033.58-90.56c-.56 0-1.02.46-1.02 1.02 0 .57.46 1.03 1.02 1.03.58 0 1.03-.45 1.03-1.03 0-.56-.47-1.02-1.03-1.02z" fill="#8da5f3"/><path d="m1038.17-95.95c0-2.09-1.78-3.61-4.24-3.61-2.23 0-3.82 1.23-4.07 3.14l-.03.27h2.14l.04-.2c.17-.86.97-1.44 1.99-1.44 1.21 0 2.06.76 2.06 1.84 0 1.03-1.46 2.16-2.8 2.16h-1.68l1.28 2.57h1.69l.06-1.21.01-.16.16-.02c2.1-.28 3.39-1.56 3.39-3.34z" fill="#8da5f3"/><path d="m836.5-24.65v-2.47c.69.1 1.32.41 1.99 1.09l1.26-1.17c-.76-.8-1.76-1.29-2.96-1.41v-1.55h-.29-1-.32v1.58c-1.66.29-2.9 1.35-2.9 2.79 0 2.06 1.66 2.45 3.22 2.68v1.95.7c-.86-.14-1.64-.59-2.21-1.23l-1.29 1.2c.94 1.02 2.1 1.55 3.18 1.7v1.62h.32 1 .29v-1.64c1.74-.26 3.21-1.4 3.21-3.11 0-2.21-1.86-2.52-3.5-2.73zm-2.43-1.23c0-.5.4-1.11 1.43-1.26v2.34c-.82-.15-1.43-.39-1.43-1.08zm2.43 5.45v-.73-1.8c.96.15 1.71.38 1.71 1.14 0 .79-.68 1.27-1.71 1.39z" fill="#e0e0e0"/><path d="m1016.18-89.16c-1.08-.15-2.24-.68-3.18-1.7l1.29-1.2c.69.76 1.65 1.29 2.73 1.29 1.29-.02 2.2-.52 2.2-1.43 0-2.13-5.93-.08-5.93-3.96 0-1.44 1.25-2.51 2.9-2.79v-1.58h1.61v1.55c1.2.12 2.2.61 2.96 1.41l-1.26 1.17c-.84-.85-1.6-1.14-2.49-1.14-1.41 0-1.93.71-1.93 1.29 0 2.14 5.93 0 5.93 3.96 0 1.72-1.47 2.85-3.21 3.11v1.64h-1.61v-1.62z"/><path d="m1016.5-100.54h1v10h-1z"/><path d="m1016.5-91.54h1v4h-1z"/><path d="m-171.37-26.47.74-.74-1.08-1.08-.77.77c-.56-.41-1.2-.72-1.89-.92v-2.23h-3.25v2.23c-2.52.71-4.38 3.02-4.38 5.77 0 3.31 2.69 6 6 6s6-2.69 6-6c0-1.44-.51-2.76-1.37-3.8zm-4.63 8.51c-2.59 0-4.7-2.11-4.7-4.7 0-2.37 1.77-4.32 4.05-4.63v4.64h1.3v-4.64c2.28.32 4.05 2.27 4.05 4.63 0 2.59-2.11 4.7-4.7 4.7z" fill="#c38ef1"/><g fill="#8da5f3"><path d="m-402-25.66c1.02-1 2.67-1.95 4-2.5-1.33-.55-2.98-1.5-4-2.5l.64 1.97v.03h-12.64v1h12.64v.03z"/><path d="m-402-15.66c1.02-1 2.67-1.95 4-2.5-1.33-.55-2.98-1.5-4-2.5l.64 1.97v.03h-12.64v1h12.64v.03z"/><path d="m-402-20.66c1.02-1 2.67-1.95 4-2.5-1.33-.55-2.98-1.5-4-2.5l.64 1.97v.03h-12.64v1h12.64v.03z"/><path d="m920.06-105.83c-1.42-.55-3.18-1.5-4.27-2.5l.68 1.97h-12.41v1.05h12.41l-.68 1.97c1.09-.99 2.85-1.94 4.27-2.49z"/><path d="m920.06-111.33c-1.42-.55-3.18-1.5-4.27-2.5l.68 1.97h-12.41v1.05h12.41l-.68 1.97c1.09-.99 2.85-1.94 4.27-2.49z"/><path d="m920.06-101.33c-1.42-.55-3.18-1.5-4.27-2.5l.68 1.97h-12.41v1.05h12.41l-.68 1.97c1.09-.99 2.85-1.94 4.27-2.49z"/><path d="m920.06-95.83c-1.42-.55-3.18-1.5-4.27-2.5l.68 1.97h-12.41v1.05h12.41l-.68 1.97c1.09-.99 2.85-1.94 4.27-2.49z"/><path d="m920.06-90.33c-1.42-.55-3.18-1.5-4.27-2.5l.68 1.97h-12.41v1.05h12.41l-.68 1.97c1.09-.99 2.85-1.94 4.27-2.49z"/><path d="m916.7-83.8-.64 1.97c1.02-1 2.67-1.95 4-2.5-1.33-.55-2.98-1.5-4-2.5l.64 1.97"/><path d="m904.06-84.83h13v1h-13z"/></g><g fill="#c38ef1"><path d="m922.91-17.16c-1.37-2.27-1.91-4.36-1.91-6.5s.54-4.23 1.91-6.5l1.09 1.06c-1.26 2.37-1.51 3.87-1.51 5.44s.25 3.08 1.51 5.44z"/><path d="m933.09-30.16c1.37 2.27 1.91 4.36 1.91 6.5s-.54 4.23-1.91 6.5l-1.09-1.06c1.26-2.37 1.51-3.87 1.51-5.44s-.25-3.08-1.51-5.44z"/><path d="m930.87-20.23h-1.84l-1.21-2.33-1.93 2.33h-1.89l2.96-3.53-1.84-3.47h1.89l1.18 2.23 1.86-2.23h1.95l-2.98 3.49z"/><circle cx="970" cy="-23.66" r="1"/><circle cx="974" cy="-23.66" r="1"/><circle cx="978" cy="-23.66" r="1"/><path d="m970-18.13h-1.95v-11.05h1.95v-.98h-3v13h3z"/><path d="m978-30.16v.98h1.95v11.05h-1.95v.97h3v-13z"/></g><g fill="#ffca5f"><path d="m1073-23.65c0-1.69-.6-3.23-1.59-4.44l.01-.01c-.38-.46-.82-.87-1.31-1.22l-.01.01c-.66-.48-1.4-.84-2.21-1.07v-.01c-.6-.17-1.24-.27-1.89-.27s-1.29.1-1.89.27v.01c-2.57.72-4.55 2.87-5.01 5.55v.02c-.06.38-.1.77-.1 1.17 0 3.86 3.13 6.99 7 6.99s7-3.14 7-7zm-7 5.48c-3.02 0-5.48-2.46-5.48-5.48 0-2.76 2.06-5.03 4.73-5.4v5.4h1.51v-5.4c2.66.37 4.73 2.64 4.73 5.4-.01 3.02-2.47 5.48-5.49 5.48z"/><path d="m1065.99-16.66c1.69 0 3.23-.6 4.44-1.59l.01.01c.46-.38.87-.82 1.22-1.31l-.01-.01c.48-.66.84-1.4 1.07-2.21h.01c.17-.6.27-1.24.27-1.89s-.1-1.29-.27-1.89h-.01c-.72-2.57-2.87-4.55-5.55-5-.01 0-.01 0-.02 0-.38-.06-.77-.1-1.17-.1-3.86 0-6.99 3.13-6.99 7s3.14 6.99 7 6.99zm-5.48-7c0-3.02 2.46-5.48 5.48-5.48 2.76 0 5.03 2.06 5.4 4.73h-5.4v1.51h5.4c-.37 2.66-2.64 4.73-5.4 4.73-3.02-.01-5.48-2.47-5.48-5.49z"/><circle cx="1066" cy="-23.66" r="1.5"/></g><path d="m772.74-125.15h109.26v42.64h-109.26z" fill="none"/><text transform="translate(772.7445 -120.8889)"><tspan font-family="MyriadPro-Regular" font-size="6" x="0" y="0">1. #</tspan><tspan fill="#e0e0e0" font-family="MyriadPro-Regular" font-size="6" x="8.57" y="0">e0e0e0</tspan><tspan font-family="MyriadPro-Regular" font-size="6" x="26.83" y="0"> gray - actions</tspan><tspan font-family="MyriadPro-Regular" font-size="6" x="0" y="7.2">2. #</tspan><tspan fill="#8da5f3" font-family="MyriadPro-Regular" font-size="6" x="8.57" y="7.2">8da5f3</tspan><tspan font-family="MyriadPro-Regular" font-size="6" x="25.84" y="7.2"> blue - composites !!!</tspan><tspan font-family="MyriadPro-Regular" font-size="6" x="0" y="14.4">3. #</tspan><tspan fill="#ffca5f" font-family="MyriadPro-Regular" font-size="6" x="8.57" y="14.4">ffca5f</tspan><tspan font-family="MyriadPro-Regular" font-size="6" x="22.48" y="14.4"> yellow/orange - conditions !!!</tspan><tspan font-family="MyriadPro-Regular" font-size="6" x="0" y="21.6">4. #</tspan><tspan fill="#c38ef1" font-family="MyriadPro-Regular" font-size="6" x="8.57" y="21.6">c38ef1</tspan><tspan font-family="MyriadPro-Regular" font-size="6" x="25.25" y="21.6"> purple/magenta - decorators !!!</tspan><tspan font-family="MyriadPro-Regular" font-size="6" x="0" y="28.8">5. #</tspan><tspan fill="#8eef97" font-family="MyriadPro-Regular" font-size="6" x="8.57" y="28.8">8eef97</tspan><tspan font-family="MyriadPro-Regular" font-size="6" x="25.57" y="28.8"> green - success !!!</tspan><tspan font-family="MyriadPro-Regular" font-size="6" x="0" y="36">6. #</tspan><tspan fill="#fc7f7f" font-family="MyriadPro-Regular" font-size="6" x="8.57" y="36">fc7f7f</tspan><tspan font-family="MyriadPro-Regular" font-size="6" x="22.67" y="36"> red - failure !!!</tspan></text><g fill="#fff"><path d="m1267.81-27.69c-.34-.34-.94-.3-1.33.09l-1.41 1.41c-.39.39-.43.98-.09 1.33l3.09 3.09 5.57 5.57c.34.34.94.3 1.33-.09l1.41-1.41c.39-.39.43-.98.09-1.33l-2.9-2.9zm-.7.71 2.47 2.47-1.41 1.41-2.47-2.47z"/><path d="m1264.72-27.45c-.13 0-.26-.05-.35-.15l-1.41-1.41c-.2-.2-.2-.51 0-.71s.51-.2.71 0l1.41 1.41c.2.2.2.51 0 .71-.1.1-.23.15-.36.15z"/><path d="m1263.79-25.25h-2c-.28 0-.5-.22-.5-.5s.22-.5.5-.5h2c.28 0 .5.22.5.5s-.22.5-.5.5z"/><path d="m1263.27-21.59c-.13 0-.26-.05-.35-.15-.2-.2-.2-.51 0-.71l1.41-1.41c.2-.2.51-.2.71 0s.2.51 0 .71l-1.41 1.41c-.11.1-.24.15-.36.15z"/><path d="m1266.89-28.35c-.28 0-.5-.22-.5-.5v-2c0-.28.22-.5.5-.5s.5.22.5.5v2c0 .27-.22.5-.5.5z"/><path d="m1269.14-27.47c-.13 0-.26-.05-.35-.15-.2-.2-.2-.51 0-.71l1.41-1.41c.2-.2.51-.2.71 0s.2.51 0 .71l-1.41 1.41c-.1.11-.23.15-.36.15z"/><path d="m1215-49.66h-8v4h8zm-16 0h-8v4h8zm-16 0h-8v4h8zm-16 0h-8v4h8zm-16 0h-8v4h8zm-16 0h-8v4h8zm-12 0h-4v8h4zm0 16h-4v8h4zm0 16h-4v8h4zm0 16h-4v8h4zm0 16h-4v8h4zm0 16h-4v8h4zm4 12h-8v4h8zm16 0h-8v4h8zm16 0h-8v4h8zm16 0h-8v4h8zm16 0h-8v4h8zm16 0h-8v4h8zm8-4h-4v8h4zm0-16h-4v8h4zm0-16h-4v8h4zm0-16h-4v8h4zm0-16h-4v8h4zm0-16h-4v8h4z"/><path d="m1131.92-36.16h30v30h-30z"/><path d="m1172.08-36.16h30v30h-30z"/><path d="m1131.92 2.84h30v30h-30z"/><path d="m1202.02 15.63-30-12.85 12.86 30 2.6-10.25 9.89 9.88 4.28-4.28-9.88-9.89z"/></g><path d="m1315.51-22.05c-.38-1.69-.56-3.43-.57-5.14.03-1.18.11-2.39.7-3.48-1.61 1.78-2.6 6.02-2.63 9.74-.19-.26-.37-.53-.57-.79-.81-1-1.65-2.05-2.77-2.77-.37-.23-.87-.43-1.29-.26 1.78.3 2.41 7.08 3 7.38 2.33 1.57 6.77 0 6.77 0 0-.19-.01-.36-.02-.57-.46-4.11.55-8.58 4.25-11.15-3.32 1.21-5.59 3.95-6.87 7.04z" fill="#8da5f3"/><g fill="#ffca5f"><path d="m1367.1-16.16h-1.46l-.96-1.87-1.54 1.87h-1.52l2.36-2.83-1.46-2.78h1.51l.94 1.79 1.49-1.79h1.55l-2.37 2.79z"/><path d="m1358.7-20.16c-.83 0-1.5.67-1.5 1.49 0 .83.67 1.51 1.5 1.51.85 0 1.52-.66 1.52-1.51.01-.82-.68-1.49-1.52-1.49z"/><path d="m1364.09-26.83c0-2.51-2.16-4.33-5.13-4.33-2.69 0-4.62 1.48-4.92 3.77l-.04.32h2.58l.05-.24c.2-1.03 1.17-1.72 2.41-1.72 1.47 0 2.49.91 2.49 2.21 0 1.23-1.77 2.59-3.38 2.59h-2.03l1.54 3.08h2.05l.08-1.45.01-.2.2-.03c2.52-.33 4.09-1.86 4.09-4z"/><path d="m1404.7-20.16c-.83 0-1.5.67-1.5 1.49 0 .83.67 1.51 1.5 1.51.85 0 1.52-.66 1.52-1.51.01-.82-.68-1.49-1.52-1.49z"/><path d="m1410.09-26.83c0-2.51-2.16-4.33-5.13-4.33-2.69 0-4.62 1.48-4.92 3.77l-.04.32h2.58l.05-.24c.2-1.03 1.17-1.72 2.41-1.72 1.47 0 2.49.91 2.49 2.21 0 1.23-1.77 2.59-3.38 2.59h-2.03l1.54 3.08h2.05l.08-1.45.01-.2.2-.03c2.52-.33 4.09-1.86 4.09-4z"/></g><path d="m1072.76-119.99h42.81v16.56h-42.81z" fill="none"/><text font-family="NotoSans-Bold" font-size="9" transform="translate(1072.761 -113.1541)">T</text><g fill="#e0e0e0"><path d="m1503.93-30.16h-1.95l-6.91 13h2.21l1.99-3.9h3.78l.46 3.9h1.98zm-1.08 7.23h-2.6c1.09-2.12 1.77-3.46 1.97-3.9.06-.13.13-.27.19-.4.04.54.1 1.19.19 1.94z"/><path d="m1497.39-25.16h-1.31l-.86-1.67-1.37 1.67h-1.35l2.11-2.52-1.31-2.48h1.34l.84 1.59 1.33-1.59h1.38l-2.12 2.49z"/><path d="m1018.56-20.08c-.61 0-1.1-.22-1.45-.67s-.53-1.07-.53-1.87c0-.83.15-1.62.45-2.37s.7-1.33 1.19-1.74 1.03-.62 1.61-.62c.41 0 .76.09 1.05.26.29.18.52.43.69.76h.05l.36-.9h1.46l-1.49 7.01h-1.41l.09-.91h-.05c-.58.71-1.25 1.05-2.02 1.05zm.74-1.52c.29 0 .57-.14.83-.42.27-.28.48-.66.65-1.14.16-.48.25-1.02.25-1.63 0-.3-.08-.54-.24-.74s-.37-.29-.64-.29c-.29 0-.56.15-.81.45-.26.3-.46.7-.61 1.19s-.23.98-.23 1.47c0 .37.07.65.21.83.13.19.33.28.59.28z"/></g><g fill="#ffca5f"><path d="m1409.35-16.16h1.61l.89-4.23h1.86l.29-1.36h-5.32l-.29 1.36h1.85z"/><path d="m1450.7-20.16c-.83 0-1.5.67-1.5 1.49 0 .83.67 1.51 1.5 1.51.85 0 1.52-.66 1.52-1.51.01-.82-.68-1.49-1.52-1.49z"/><path d="m1456.09-26.83c0-2.51-2.16-4.33-5.13-4.33-2.69 0-4.62 1.48-4.92 3.77l-.04.32h2.58l.05-.24c.2-1.03 1.17-1.72 2.41-1.72 1.47 0 2.49.91 2.49 2.21 0 1.23-1.77 2.59-3.38 2.59h-2.03l1.54 3.08h2.05l.08-1.45.01-.2.2-.03c2.52-.33 4.09-1.86 4.09-4z"/><path d="m1457.62-17.49h-1.76l-.73 1.33h-1.52l3.25-5.61h1.58l.62 5.61h-1.43zm-.01-.99-.09-2.14-1.12 2.14z"/></g><path d="m1014.91-17.16c-1.37-2.27-1.91-4.36-1.91-6.5s.54-4.23 1.91-6.5l1.09 1.06c-1.26 2.37-1.51 3.87-1.51 5.44s.25 3.08 1.51 5.44z" fill="#e0e0e0"/><path d="m1025.09-30.16c1.37 2.27 1.91 4.36 1.91 6.5s-.54 4.23-1.91 6.5l-1.09-1.06c1.26-2.37 1.51-3.87 1.51-5.44s-.25-3.08-1.51-5.44z" fill="#e0e0e0"/><path d="m1072.98-140.15h42.38v30h-42.38z" fill="none"/><text font-family="NotoSans-BoldItalic" font-size="12" transform="translate(1072.9797 -131.0288)">XaaA</text><path d="m-38.78 2.6h2.06v1.5h-2.06v2.03h-1.48v-2.03h-2.06v-1.5h2.06v-2.07h1.48z" fill="#8eef97"/><g fill="#e0e0e0"><path d="m1091.17-101.56v14h1v-2h2v2h8v-2h2v2h1v-14h-1v2h-2v-2h-8v2h-2v-2zm1 4h2v2h-2zm10 0h2v2h-2zm-10 4h2v2h-2zm10 0h2v2h-2z"/><path d="m1584-18.66h2v2h-2z"/><path d="m1584-30.66h2v2h-2z"/><path d="m1584-22.66h2v2h-2z"/><path d="m1584-26.66h2v2h-2z"/><path d="m1594-20.16v-3.5-3.5l-3 1.75-3 1.75 3 1.75z"/><path d="m1596-26.66h2v2h-2z"/><path d="m1596-18.66h2v2h-2z"/><path d="m1596-30.66h2v2h-2z"/><path d="m1596-22.66h2v2h-2z"/><path d="m1550-30.66h2v2h-2z"/><path d="m1550-18.66h2v2h-2z"/><path d="m1550-26.66h2v2h-2z"/><path d="m1550-22.66h2v2h-2z"/><path d="m1542-27.16v3.5 3.5l3-1.75 3-1.75-3-1.75z"/><path d="m1538-22.66h2v2h-2z"/><path d="m1538-30.66h2v2h-2z"/><path d="m1538-18.66h2v2h-2z"/><path d="m1538-26.66h2v2h-2z"/><path d="m1642-30.66h2v2h-2z"/><path d="m1642-18.66h2v2h-2z"/><path d="m1642-26.66h2v2h-2z"/><path d="m1642-22.66h2v2h-2z"/><path d="m1630-22.66h2v2h-2z"/><path d="m1630-30.66h2v2h-2z"/><path d="m1630-18.66h2v2h-2z"/><path d="m1630-26.66h2v2h-2z"/><path d="m1634-26.66h6v6h-6z"/><path d="m1688-30.66h2v2h-2z"/><path d="m1688-18.66h2v2h-2z"/><path d="m1688-26.66h2v2h-2z"/><path d="m1688-22.66h2v2h-2z"/><path d="m1676-22.66h2v2h-2z"/><path d="m1676-30.66h2v2h-2z"/><path d="m1676-18.66h2v2h-2z"/><path d="m1676-26.66h2v2h-2z"/><path d="m1686.5-19.06c0-.14 0-.31-.02-.5-.02-.26-.09-.56-.19-.87-.01-.03-.02-.06-.03-.09-.03-.08-.05-.16-.09-.25-.18-.46-.44-.91-.85-1.27-1.14-1-2.51-1.58-1.07-2.69s2.07-2.11 2.07-2.85c0-.44 0-1.08 0-1.08h-6.65v1.08c0 .73.63 1.73 2.07 2.85s.07 1.69-1.07 2.69c-.41.36-.68.81-.85 1.27-.04.09-.06.17-.09.25-.01.03-.02.06-.03.09-.1.31-.16.61-.19.87-.02.2-.02.36-.02.5v.4h7c.01 0 .01-.15.01-.4z"/><path d="m1113.06-98.29h3v2.6h-3z" transform="matrix(.309 -.9511 .9511 .309 862.3834 992.9904)"/><path d="m1114.95-92.48h3v2.6h-3z" transform="matrix(-.809 -.5878 .5878 -.809 2073.2659 491.2846)"/><path d="m1121.06-92.48h3v2.6h-3z" transform="matrix(-.809 .5878 -.5878 -.809 1977.1267 -824.7692)"/><path d="m1122.94-98.29h3v2.6h-3z" transform="matrix(.309 .9511 -.9511 .309 684.727 -1136.4268)"/><path d="m1118-101.88h3v2.6h-3z"/><path d="m1119.5-99.88c-2.49 0-4.5 2.01-4.5 4.5s2.01 4.5 4.5 4.5 4.5-2.01 4.5-4.5-2.01-4.5-4.5-4.5zm0 7.2c-1.49 0-2.7-1.21-2.7-2.7s1.21-2.7 2.7-2.7 2.7 1.21 2.7 2.7-1.21 2.7-2.7 2.7z"/><path d="m1734.1-25.24c-.31-.87-.86-1.61-1.57-2.16l.74-2.28-3-.98-.74 2.27c-.63.02-1.22.16-1.76.4l1.53 1.53c.12-.02.24-.04.36-.04 1.57 0 2.84 1.27 2.84 2.85 0 1.57-1.27 2.85-2.84 2.85-.12 0-.24-.02-.36-.04l-1.53 1.53c.54.23 1.14.38 1.76.4l.74 2.27 3-.98-.74-2.28c.71-.55 1.26-1.29 1.57-2.16h2.4v-3.16h-2.4z"/><path d="m1731.37-23.66c-2.27-.89-5.09-2.4-6.84-4l1.03 3h-4.06v2h4.06l-1.03 3c1.75-1.6 4.56-3.11 6.84-4z"/></g><path d="m946.03-124.79-1.41-1.41-4.79 4.79-4.8-4.79-1.41 1.41 4.79 4.8-4.79 4.79 1.41 1.41 4.8-4.79 4.79 4.79 1.41-1.41-4.79-4.79z" fill="#fc7f7f"/><path d="m976.03-109.99c-.33 0-.64-.16-.83-.43l-4.21-6.14 1.65-1.13 3.36 4.9 6.98-10.74 1.68 1.09-7.79 12c-.18.28-.49.45-.83.46 0-.01-.01-.01-.01-.01z" fill="#8eef97"/><path d="m964.46-125.8.74-.74-1.08-1.08-.77.77c-.56-.41-1.2-.72-1.89-.92v-2.23h-3.25v2.23c-2.52.71-4.38 3.02-4.38 5.77 0 3.31 2.69 6 6 6s6-2.69 6-6c0-1.44-.52-2.77-1.37-3.8zm-4.63 8.51c-2.59 0-4.7-2.11-4.7-4.7 0-2.37 1.77-4.32 4.05-4.63v4.64h1.3v-4.64c2.28.32 4.05 2.27 4.05 4.63 0 2.59-2.11 4.7-4.7 4.7z" fill="#c38ef1"/><g fill="#e0e0e0"><path d="m1780-30.66h2v2h-2z"/><path d="m1780-18.66h2v2h-2z"/><path d="m1780-26.66h2v2h-2z"/><path d="m1780-22.66h2v2h-2z"/><path d="m1768-22.66h2v2h-2z"/><path d="m1768-30.66h2v2h-2z"/><path d="m1768-18.66h2v2h-2z"/><path d="m1768-26.66h2v2h-2z"/><path d="m1772-26.66h2v6h-2z"/><path d="m1776-26.66h2v6h-2z"/></g><path d="m1824.77-24.75-.75 2.22h2.8l-.21 1.97h-3.22l-1.26 3.91h-2.38l1.27-3.91h-2.1l-1.25 3.91h-2.33l1.22-3.91h-2.58l.2-1.97h3l.76-2.22h-2.73l.2-2h3.13l1.29-3.9h2.35l-1.27 3.9h2.16l1.26-3.9h2.33l-1.26 3.9h2.59l-.2 2zm-5.23 2.22h2.13l.75-2.22h-2.12z" fill="#474747"/><path d="m1832.26-33.1h6.25v5.79h-6.25z" fill="#474747"/><g fill="#e0e0e0"><path d="m1883.41-52.74-3.03 4.71-1.44-2.12-.93.64 1.92 2.82c.11.15.28.25.47.25h.01c.19 0 .36-.1.47-.26l3.42-5.32.07-.1z"/><path d="m1887.86-57.57h-4.35c-.73 0-1.33.59-1.33 1.33v.92h-4.62c-1.17 0-2.13.95-2.13 2.13v4.62h-.92c-.73 0-1.33.59-1.33 1.33v4.35c0 .73.59 1.33 1.33 1.33h4.35c.73 0 1.33-.59 1.33-1.33v-.92h4.62c1.17 0 2.13-.95 2.13-2.13v-4.62h.92c.73 0 1.33-.59 1.33-1.33v-4.35c-.01-.74-.6-1.33-1.33-1.33zm-8.68 14.67c0 .18-.15.33-.33.33h-4.35c-.18 0-.33-.15-.33-.33v-4.35c0-.18.15-.33.33-.33h.92v1.62c0 1.17.95 2.13 2.13 2.13h1.62v.93zm6.25-3.05c0 .35-.28.63-.63.63h-7.25c-.35 0-.63-.28-.63-.63v-7.25c0-.35.28-.63.63-.63h7.25c.34 0 .63.28.63.63zm2.75-5.95c0 .18-.15.33-.33.33h-.92v-1.62c0-1.17-.95-2.13-2.13-2.13h-1.62v-.92c0-.18.15-.33.33-.33h4.35c.18 0 .33.15.33.33v4.34z"/><path d="m1869.23-26.83-3.03 4.71-1.44-2.12-.93.64 1.92 2.82c.11.15.28.25.47.25h.01c.19 0 .36-.1.47-.26l3.42-5.32.07-.1z"/><path d="m1863.46-67.03c-.14 0-.28-.07-.36-.19l-1.85-2.72.72-.5 1.48 2.17 3.06-4.76.74.48-3.42 5.32c-.08.12-.22.19-.37.2z" stroke="#e0e0e0" stroke-miterlimit="10" stroke-width=".25"/><path d="m1870.92-78.03h-4.35c-.73 0-1.33.59-1.33 1.33v.92h-4.62c-1.17 0-2.13.95-2.13 2.13v4.62h-.92c-.73 0-1.33.59-1.33 1.33v4.35c0 .73.59 1.33 1.33 1.33h4.35c.73 0 1.33-.59 1.33-1.33v-.92h4.62c1.17 0 2.13-.95 2.13-2.13v-4.62h.92c.73 0 1.33-.59 1.33-1.33v-4.35c0-.74-.59-1.33-1.33-1.33zm-8.67 14.67c0 .18-.15.33-.33.33h-4.35c-.18 0-.33-.15-.33-.33v-4.35c0-.18.15-.33.33-.33h.92v1.62c0 1.17.95 2.13 2.13 2.13h1.62v.93zm6.25-3.05c0 .35-.28.63-.63.63h-7.25c-.35 0-.63-.28-.63-.63v-7.25c0-.35.28-.63.63-.63h7.25c.34 0 .63.28.63.63zm2.75-5.95c0 .18-.15.33-.33.33h-.92v-1.62c0-1.17-.95-2.13-2.13-2.13h-1.62v-.92c0-.18.15-.33.33-.33h4.35c.18 0 .33.15.33.33v4.34z"/><path d="m1888.25-68.28c-.17 0-.33-.08-.42-.22l-2.16-3.17.85-.58 1.72 2.53 3.57-5.55.86.56-3.99 6.2c-.1.13-.26.22-.43.23z" stroke="#e0e0e0" stroke-miterlimit="10" stroke-width=".25"/><path d="m1895.84-79.78h-4.35c-.73 0-1.33.59-1.33 1.33v1.17h1v-1.17c0-.18.15-.33.33-.33h4.35c.18 0 .33.15.33.33v4.35c0 .18-.15.33-.33.33h-1.17v1h1.17c.73 0 1.33-.59 1.33-1.33v-4.35c0-.74-.6-1.33-1.33-1.33z"/><path d="m1887.17-65.11c0 .18-.15.33-.33.33h-4.35c-.18 0-.33-.15-.33-.33v-4.35c0-.18.15-.33.33-.33h1.17v-1h-1.17c-.73 0-1.33.59-1.33 1.33v4.35c0 .73.59 1.33 1.33 1.33h4.35c.73 0 1.33-.59 1.33-1.33v-1.17h-1z"/><path d="m1892.79-77.28h-1.62-1-4.62c-1.04 0-1.88.84-1.88 1.88v4.62 1 1.62c0 1.04.84 1.88 1.88 1.88h1.62 1 4.62c1.03 0 1.88-.84 1.88-1.88v-4.62-1-1.62c0-1.04-.84-1.88-1.88-1.88zm.88 3.5v1 4.62c0 .48-.39.88-.88.88h-4.62-1-1.62c-.48 0-.88-.39-.88-.88v-1.62-1-4.62c0-.48.39-.88.88-.88h4.62 1 1.62c.48 0 .88.39.88.88z" stroke="#e0e0e0" stroke-miterlimit="10" stroke-width=".5"/><path d="m1935.84-79.03h-4.35c-.73 0-1.33.59-1.33 1.33v1.17h1v-1.17c0-.18.15-.33.33-.33h4.35c.18 0 .33.15.33.33v4.35c0 .18-.15.33-.33.33h-1.17v1h1.17c.73 0 1.33-.59 1.33-1.33v-4.35c0-.74-.6-1.33-1.33-1.33z"/><path d="m1927.17-64.36c0 .18-.15.33-.33.33h-4.35c-.18 0-.33-.15-.33-.33v-4.35c0-.18.15-.33.33-.33h1.17v-1h-1.17c-.73 0-1.33.59-1.33 1.33v4.35c0 .73.59 1.33 1.33 1.33h4.35c.73 0 1.33-.59 1.33-1.33v-1.17h-1z"/><path d="m1932.79-76.53h-1.62-1-4.62c-1.04 0-1.88.84-1.88 1.88v4.62 1 1.62c0 1.04.84 1.88 1.88 1.88h1.62 1 4.62c1.03 0 1.88-.84 1.88-1.88v-4.62-1-1.62c0-1.04-.84-1.88-1.88-1.88zm.88 3.5v1 4.62c0 .48-.39.88-.88.88h-4.62-1-1.62c-.48 0-.88-.39-.88-.88v-1.62-1-4.62c0-.48.39-.88.88-.88h4.62 1 1.62c.48 0 .88.39.88.88z"/><path d="m1865.14-54-2.89 4.52-1.38-2.04-.86.6 1.82 2.69c.1.14.26.23.43.23h.01c.17 0 .34-.09.43-.24l3.26-5.1.05-.09z"/><path d="m1869.44-59h-4.35c-.87 0-1.58.71-1.58 1.58v.67h-4.12c-1.17 0-2.13.95-2.13 2.13v4.12h-.67c-.87 0-1.58.71-1.58 1.58v4.35c0 .87.71 1.58 1.58 1.58h4.35c.87 0 1.58-.71 1.58-1.58v-.67h4.12c1.17 0 2.13-.95 2.13-2.13v-4.12h.67c.87 0 1.58-.71 1.58-1.58v-4.35c0-.87-.71-1.58-1.58-1.58zm-8.42 14.43c0 .04-.03.08-.08.08h-4.35c-.04 0-.08-.03-.08-.08v-4.35c0-.04.03-.08.08-.08h.67v1.62c0 1.17.95 2.13 2.13 2.13h1.62v.68zm6.25-8.43v1.5 4.12c0 .35-.28.63-.63.63h-4.12-1.5-1.62c-.35 0-.63-.28-.63-.63v-1.62-1.5-4.12c0-.35.28-.63.63-.63h4.12 1.5 1.62c.34 0 .63.28.63.63zm2.25-.07c0 .04-.03.08-.08.08h-.67v-1.62c0-1.17-.95-2.13-2.13-2.13h-1.62v-.67c0-.04.03-.08.08-.08h4.35c.04 0 .08.03.08.08v4.34z"/><path d="m1919.09-59h-4.35c-.87 0-1.58.71-1.58 1.58v.67h-4.12c-1.17 0-2.13.95-2.13 2.13v4.12h-.67c-.87 0-1.58.71-1.58 1.58v4.35c0 .87.71 1.58 1.58 1.58h4.35c.87 0 1.58-.71 1.58-1.58v-.67h4.12c1.17 0 2.13-.95 2.13-2.13v-4.12h.67c.87 0 1.58-.71 1.58-1.58v-4.35c-.01-.87-.72-1.58-1.58-1.58zm-8.43 14.43c0 .04-.03.08-.08.08h-4.35c-.04 0-.08-.03-.08-.08v-4.35c0-.04.03-.08.08-.08h.67v1.62c0 1.17.95 2.13 2.13 2.13h1.62v.68zm6.25-8.43v1.5 4.12c0 .35-.28.63-.63.63h-4.12-1.5-1.62c-.35 0-.63-.28-.63-.63v-1.62-1.5-4.12c0-.35.28-.63.63-.63h4.12 1.5 1.62c.34 0 .63.28.63.63zm2.25-.07c0 .04-.03.08-.08.08h-.67v-1.62c0-1.17-.95-2.13-2.13-2.13h-1.62v-.67c0-.04.03-.08.08-.08h4.35c.04 0 .08.03.08.08v4.34z"/></g><g fill="#c38ef1"><path d="m1914.57-69.53h-4.35c-.87 0-1.58-.71-1.58-1.58v-4.35c0-.87.71-1.58 1.58-1.58h4.35c.87 0 1.58.71 1.58 1.58v4.35c0 .87-.71 1.58-1.58 1.58zm-4.35-6c-.04 0-.08.03-.08.08v4.35c0 .04.03.08.08.08h4.35c.04 0 .08-.03.08-.08v-4.35c0-.04-.03-.08-.08-.08z"/><path d="m1906.07-61.03h-4.35c-.87 0-1.58-.71-1.58-1.58v-4.35c0-.87.71-1.58 1.58-1.58h4.35c.87 0 1.58.71 1.58 1.58v4.35c0 .87-.71 1.58-1.58 1.58zm-4.35-6c-.04 0-.08.03-.08.08v4.35c0 .04.03.08.08.08h4.35c.04 0 .08-.03.08-.08v-4.35c0-.04-.03-.08-.08-.08z"/><path d="m1910.27-72.03-2.89 4.52-1.38-2.04-.86.6 1.82 2.69c.1.14.26.23.43.23h.01c.17 0 .34-.09.43-.24l3.26-5.1.05-.09z"/><path d="m1911.77-63.28h-7.25c-1.17 0-2.13-.95-2.13-2.13v-7.25c0-1.17.95-2.13 2.13-2.13h7.25c1.17 0 2.13.95 2.13 2.13v7.25c0 1.17-.96 2.13-2.13 2.13zm-7.25-10c-.35 0-.63.28-.63.63v7.25c0 .35.28.63.63.63h7.25c.34 0 .63-.28.63-.63v-7.25c0-.35-.28-.63-.63-.63z"/></g><g fill="#e0e0e0"><path d="m1873.67-31.66h-4.35c-.62 0-1.11.43-1.26 1h1.26 3.79.55c.18 0 .33.15.33.33v1.21 3.14 1.26c.57-.15 1-.64 1-1.26v-4.35c.01-.73-.58-1.33-1.32-1.33z"/><path d="m1860.48-16.66h-.16c-.18 0-.33-.15-.33-.33v-2.05-2.3-1.26c-.57.15-1 .64-1 1.26v4.35c0 .73.59 1.33 1.33 1.33h4.35c.62 0 1.11-.43 1.26-1h-1.26z"/><path d="m1870.62-29.41h-1.62-1-4.62c-1.17 0-2.13.95-2.13 2.13v4.62 1 1.62c0 1.17.95 2.13 2.13 2.13h1.62 1 1.29 3.33c1.17 0 2.13-.95 2.13-2.13v-4.62-1-1.62c0-1.18-.95-2.13-2.13-2.13zm.63 9.37c0 .35-.28.63-.63.63h-7.25c-.35 0-.63-.28-.63-.63v-7.25c0-.35.28-.63.63-.63h7.25c.34 0 .63.28.63.63z"/><path d="m1919.67-31.66h-4.35c-.62 0-1.11.43-1.26 1h1.26 3.79.55c.18 0 .33.15.33.33v1.21 3.14 1.26c.57-.15 1-.64 1-1.26v-4.35c.01-.73-.58-1.33-1.32-1.33z"/><path d="m1906.48-16.66h-.16c-.18 0-.33-.15-.33-.33v-2.05-2.3-1.26c-.57.15-1 .64-1 1.26v4.35c0 .73.59 1.33 1.33 1.33h4.35c.62 0 1.11-.43 1.26-1h-1.26z"/><path d="m1916.62-29.41h-1.62-1-4.62c-1.17 0-2.13.95-2.13 2.13v4.62 1 1.62c0 1.17.95 2.13 2.13 2.13h1.62 1 1.29 3.33c1.17 0 2.13-.95 2.13-2.13v-4.62-1-1.62c0-1.18-.95-2.13-2.13-2.13zm.63 9.37c0 .35-.28.63-.63.63h-7.25c-.35 0-.63-.28-.63-.63v-7.25c0-.35.28-.63.63-.63h7.25c.34 0 .63.28.63.63z"/><path d="m1958.82-26.76c0-1.6-1.3-2.9-2.9-2.9-1.61 0-2.93 1.3-2.92 2.89 0 1.64 1.29 2.93 2.93 2.93 1.6 0 2.89-1.31 2.89-2.92zm-2.89 2.19c-1.23 0-2.2-.97-2.2-2.2 0-1.2.98-2.17 2.19-2.17 1.2 0 2.17.98 2.17 2.17 0 1.22-.97 2.21-2.16 2.2z"/><path d="m1965-20.58c0-1.6-1.3-2.9-2.9-2.9-1.61 0-2.93 1.3-2.92 2.89 0 1.64 1.29 2.93 2.93 2.93 1.6 0 2.89-1.31 2.89-2.92zm-2.9 2.19c-1.23 0-2.2-.97-2.2-2.2 0-1.2.98-2.17 2.19-2.17 1.2 0 2.17.98 2.17 2.17.01 1.22-.96 2.2-2.16 2.2z"/><path d="m1951.72-24.39h14.56v1.46h-14.56z" transform="matrix(.7071 -.7071 .7071 .7071 590.5074 1378.2926)"/></g><path d="m9 2.53v-2h-2v2h-2v2h2v2h2v-2h2v-2z" fill="#8eef97"/><path d="m-41.49 9.77h6.7v1h-6.7z" fill="#fc7f7f"/><path d="m16 10.03v-4h-6v1.5h-6.5v-3.53h.5v-1.47-.41-.59h2v-1.53h-6v4h2.5v10.5h.17.83 6.5v1.5h6v-4h-6v1.5h-6.5v-4.97h6.5v1.5z" fill="#c38ef1"/></svg>