<svg clip-rule="evenodd" fill-rule="evenodd" stroke-linejoin="round" stroke-miterlimit="2" viewBox="0 0 16 16" xmlns="http://www.w3.org/2000/svg"><path d="m0 0h16v16h-16z" fill="none"/><g fill="#e0e0e0"><path d="m1397.93 4.142v6.609c0 .94-.763 1.703-1.703 1.703h-6.609c-.94 0-1.703-.763-1.703-1.703v-6.609c0-.94.763-1.703 1.703-1.703h6.609c.94 0 1.703.763 1.703 1.703zm-.668 0c0-.572-.464-1.035-1.035-1.035h-6.609c-.572 0-1.035.463-1.035 1.035v6.609c0 .571.463 1.035 1.035 1.035h6.609c.571 0 1.035-.464 1.035-1.035z" transform="matrix(1.4978 0 0 1.4978 -2078.316 -3.15325)"/><path d="m1360.05 1.642c-1.019 0-1.932-.298-2.738-.892-.806-.595-1.44-1.459-1.903-2.592-.462-1.133-.693-2.504-.693-4.113 0-1.608.231-2.979.693-4.113.463-1.133 1.097-1.997 1.903-2.591.806-.595 1.719-.892 2.738-.892 1.032 0 1.947.297 2.748.892.8.594 1.431 1.458 1.893 2.591.463 1.134.694 2.505.694 4.113 0 1.609-.231 2.98-.694 4.113-.462 1.133-1.093 1.997-1.893 2.592-.801.594-1.716.892-2.748.892zm0-2.875c.486 0 .91-.161 1.272-.483.361-.322.646-.832.853-1.532.208-.699.311-1.601.311-2.707 0-1.105-.103-2.007-.311-2.707-.207-.699-.492-1.21-.853-1.531-.362-.322-.786-.483-1.272-.483-.474 0-.892.161-1.253.483-.362.321-.646.832-.854 1.531-.207.7-.311 1.602-.311 2.707 0 1.106.104 2.008.311 2.707.208.7.492 1.21.854 1.532.361.322.779.483 1.253.483z" fill-rule="nonzero" transform="matrix(.337428 0 0 .285928 -453.917 6.80259)"/><path d="m1373.24-10.571h-2.489v-2.728h5.37v14.689h-2.881z" transform="matrix(.337428 0 0 .285928 -452.885 6.80259)"/><path d="m1356.6 9.714h-2.49v-2.728h5.37v14.689h-2.88z" transform="matrix(.337428 0 0 .285928 -452.819 6.80259)"/><path d="m1371.59 21.927c-1.02 0-1.933-.298-2.739-.892-.806-.595-1.44-1.459-1.902-2.592-.463-1.133-.694-2.504-.694-4.113s.231-2.98.694-4.113c.462-1.133 1.096-1.997 1.902-2.591.806-.595 1.719-.892 2.739-.892 1.031 0 1.947.297 2.747.892.8.594 1.431 1.458 1.894 2.591.462 1.133.693 2.504.693 4.113s-.231 2.98-.693 4.113c-.463 1.133-1.094 1.997-1.894 2.592-.8.594-1.716.892-2.747.892zm0-2.875c.486 0 .909-.161 1.271-.483.361-.322.646-.832.853-1.532.208-.699.312-1.602.312-2.707s-.104-2.007-.312-2.707c-.207-.699-.492-1.21-.853-1.532-.362-.321-.785-.482-1.271-.482-.475 0-.892.161-1.254.482-.362.322-.646.833-.854 1.532-.207.7-.311 1.602-.311 2.707s.104 2.008.311 2.707c.208.7.492 1.21.854 1.532s.779.483 1.254.483z" fill-rule="nonzero" transform="matrix(.337428 0 0 .285928 -451.815 6.80259)"/></g></svg>