<svg clip-rule="evenodd" fill-rule="evenodd" stroke-linejoin="round" stroke-miterlimit="2" viewBox="0 0 67 67" xmlns="http://www.w3.org/2000/svg" xmlns:xlink="http://www.w3.org/1999/xlink"><clipPath id="a"><path clip-rule="evenodd" d="m5675 0h66.667v66.667h-66.667z"/></clipPath><g transform="translate(-5675)"><path d="m5675 0h66.667v66.667h-66.667z" fill="none"/><g clip-path="url(#a)" fill-rule="nonzero"><path d="m9 2.53v-2h-2v2h-2v2h2v2h2v-2h2v-2z" fill="#8eef97" transform="matrix(4.16667 0 0 4.16667 5675 0)"/><path d="m16 10.03v-4h-6v1.5h-6.5v-3.53h.5v-2.47h2v-1.53h-6v4h2.5v10.5h7.5v1.5h6v-4h-6v1.5h-6.5v-4.97h6.5v1.5z" fill="#c38ef1" transform="matrix(4.16667 0 0 4.16667 5675 0)"/></g></g></svg>