<svg enable-background="new 0 0 16 16" viewBox="0 0 16 16" xmlns="http://www.w3.org/2000/svg"><g fill="#8da5f3"><path d="m5.89 2c-1.89 0-3.25 1.06-3.46 2.7l-.05.4h2.05l.06-.29c.12-.62.71-1.04 1.46-1.04.89 0 1.51.55 1.51 1.34 0 .75-1.12 1.6-2.11 1.6h-1.62l1.2 2.42h1.63l.06-1.14c1.76-.24 2.88-1.34 2.88-2.88 0-1.8-1.52-3.11-3.61-3.11z"/><path d="m14 11c-1.7-.66-3.82-1.8-5.13-3l.77 2.25h-7.64v1.5h7.65l-.78 2.25c1.31-1.2 3.43-2.34 5.13-3z"/><path d="m14.8 1.2v13.6h-13.6v-13.6zm1.2-1.2h-16v16h16z"/></g></svg>